<svg width="24" height="24" viewBox="0 0 24 24" fill="none" xmlns="http://www.w3.org/2000/svg">
<path d="M5.58237 11.9999C5.58345 11.308 5.69711 10.6208 5.91889 9.96539L2.14785 7.14453C1.39303 8.65079 1 10.3124 1 11.9972C1 13.682 1.39303 15.3436 2.14785 16.8498L5.91669 14.0246C5.69777 13.3716 5.58634 12.6875 5.58677 11.9988" fill="#FBBC05"/>
<path d="M12.2057 5.48441C13.7052 5.48068 15.1609 5.99023 16.3308 6.92838L19.5916 3.73911C18.296 2.62544 16.7655 1.81906 15.1144 1.38025C13.4633 0.941439 11.7344 0.88156 10.0569 1.20509C8.37938 1.52861 6.79672 2.22718 5.42724 3.24854C4.05776 4.26991 2.93689 5.58765 2.14844 7.10324L5.91728 9.9252C6.36767 8.61991 7.21665 7.48904 8.34437 6.69223C9.47209 5.89543 10.8216 5.47294 12.2024 5.48441" fill="#EA4335"/>
<path d="M12.2028 18.515C10.822 18.5258 9.47252 18.1031 8.34459 17.3064C7.21666 16.5097 6.36709 15.3792 5.91557 14.0742L2.14453 16.8951C3.08977 18.7454 4.53121 20.2961 6.30758 21.3739C8.08395 22.4516 10.1252 23.0138 12.2028 22.9976C14.8915 23.0271 17.4947 22.0535 19.5041 20.2669L15.9211 17.5571C14.7933 18.2152 13.5049 18.5468 12.1995 18.515" fill="#34A853"/>
<path d="M22.9801 12.0366C22.9702 11.3652 22.8846 10.6971 22.725 10.0449H12.2773V14.2779H18.2875C18.1556 14.9532 17.8839 15.5935 17.4897 16.1575C17.0956 16.7216 16.5878 17.1969 15.9989 17.5529L19.5786 20.2627C20.6973 19.2121 21.579 17.9348 22.1646 16.5162C22.7503 15.0977 23.0264 13.5704 22.9746 12.0366" fill="#4285F4"/>
</svg>
