<svg width="20" height="20" viewBox="0 0 20 20" fill="none" xmlns="http://www.w3.org/2000/svg">
<g clip-path="url(#clip0_1_4795)">
<path d="M6.43662 19.1C5.3388 19.1 4.27484 18.7763 3.36105 18.1671C2.44726 17.5558 1.74289 16.6969 1.32195 15.6816C0.90102 14.6662 0.793143 13.5599 1.00678 12.4831C1.22042 11.4064 1.745 10.4249 2.5213 9.64855L9.74909 2.42036C10.2652 1.90421 10.8681 1.50017 11.5428 1.22094C12.2176 0.941717 12.9283 0.799988 13.6581 0.799988H13.6644C15.143 0.799988 16.5348 1.37537 17.5797 2.42247C18.0958 2.93862 18.4999 3.54361 18.7791 4.21841C19.0583 4.89321 19.2 5.60609 19.2 6.33801C19.2 7.06781 19.0583 7.7828 18.7791 8.4576C18.4999 9.1324 18.0958 9.73739 17.5797 10.2535L10.3498 17.4775C9.8337 17.9937 9.23085 18.3977 8.55609 18.6769C7.88133 18.9561 7.17061 19.0979 6.44085 19.0979H6.43662V19.1ZM3.37163 10.4989C2.9655 10.903 2.65033 11.3747 2.43034 11.9035C2.21247 12.4324 2.10036 12.9908 2.10248 13.562C2.10248 14.7191 2.55303 15.8064 3.37163 16.625C3.77352 17.029 4.24522 17.3442 4.77192 17.5642C5.29861 17.7821 5.85492 17.8942 6.42392 17.8942H6.43662C7.59365 17.8942 8.683 17.4437 9.49949 16.625L12.6872 13.4372L6.56141 7.31107L3.37163 10.4989ZM13.5396 12.5868L16.7273 9.39894C17.1334 8.9949 17.4486 8.52318 17.6686 7.99434C17.8864 7.46549 17.9985 6.90704 17.9964 6.33589C17.9964 5.17879 17.5459 4.08938 16.7273 3.27285C16.3254 2.86881 15.8537 2.55362 15.327 2.33363C14.8003 2.11574 14.244 2.00363 13.675 2.00363H13.6644C12.5074 2.00363 11.4201 2.4542 10.6015 3.27285L7.41174 6.4607L13.5396 12.5868ZM15.4856 5.14494C15.327 5.14494 15.1705 5.07937 15.0584 4.96725C14.6861 4.59495 14.189 4.38976 13.6623 4.38976C13.1356 4.38976 12.6385 4.59495 12.2662 4.96725C12.1541 5.07725 12.0039 5.13648 11.8474 5.13648C11.6867 5.13648 11.5344 5.07302 11.4222 4.96091C11.1917 4.73033 11.1875 4.35168 11.4159 4.11688L11.4392 4.09361C12.0378 3.50977 12.8268 3.18823 13.6623 3.18823C14.5105 3.18823 15.3101 3.51823 15.9108 4.11688C16.0864 4.28822 16.1371 4.54629 16.0441 4.77475C15.951 5.0011 15.7331 5.14706 15.4877 5.14706L15.4856 5.14494Z" fill="white"/>
</g>
<defs>
<clipPath id="clip0_1_4795">
<rect width="20" height="20" fill="white"/>
</clipPath>
</defs>
</svg>
