<svg width="20" height="20" viewBox="0 0 20 20" fill="none" xmlns="http://www.w3.org/2000/svg">
<g clip-path="url(#clip0_4175_4886)">
<path d="M17.7035 2.31429C16.7059 1.30463 15.3341 0.799805 13.9624 0.799805C12.5907 0.799805 11.219 1.30463 10.2214 2.31429L2.48985 10.0129C0.369919 12.1584 0.369919 15.566 2.48985 17.5853C3.48747 18.595 4.85919 19.0998 6.23091 19.0998C7.60263 19.0998 8.97435 18.595 9.97196 17.5853L17.7035 10.0129C18.7011 9.00325 19.1999 7.61498 19.1999 6.2267C19.1999 4.71222 18.7011 3.32394 17.7035 2.31429ZM9.47316 17.0805C8.60024 17.9639 7.47793 18.4688 6.23091 18.4688C4.98389 18.4688 3.86157 17.9639 2.98866 17.0805C1.24283 15.3136 1.24283 12.4108 2.98866 10.5177L6.48031 6.98394L12.9648 13.5467L9.47316 17.0805ZM16.5812 3.95498C16.4565 4.08118 16.2071 4.08118 16.0824 3.95498C15.4588 3.32394 14.7106 3.07153 13.9624 3.07153C13.0895 3.07153 12.3413 3.45015 11.8425 3.95498L9.47316 6.47911C9.22375 6.47911 9.09905 6.60532 9.09905 6.60532C8.97435 6.60532 8.84965 6.60532 8.84965 6.47911C8.72494 6.35291 8.72494 6.10049 8.84965 5.97429L11.3437 3.45015C12.0919 2.69291 12.9648 2.31429 14.0871 2.31429C15.0847 2.31429 16.0824 2.69291 16.8306 3.45015C16.7059 3.57636 16.7059 3.82877 16.5812 3.95498Z" fill="#8359E3"/>
</g>
<defs>
<clipPath id="clip0_4175_4886">
<rect width="20" height="20" fill="white"/>
</clipPath>
</defs>
</svg>
