<svg width="20" height="20" viewBox="0 0 20 20" fill="none" xmlns="http://www.w3.org/2000/svg">
<path d="M15.1945 7.56C15.2023 6.17409 14.6595 4.8418 13.6855 3.85585C12.7115 2.8699 11.3859 2.31095 9.99999 2.30182C9.53999 2.30182 9.30727 2.52182 9.30727 2.95818C9.30727 3.06727 9.53999 3.28546 9.99999 3.28546C12.2182 3.28546 14.1564 5.12727 14.1564 7.56C14.1564 7.66909 14.3891 7.88909 14.8473 7.88909C14.9618 7.88909 15.1945 7.66909 15.1945 7.56182V7.56Z" fill="white"/>
<path d="M12.7625 18.251C12.3437 18.6101 11.7992 18.8462 11.1932 18.8877L10.9998 18.8945H10.9949C10.5149 18.8998 10.0424 18.7737 9.62871 18.5303C9.49056 18.449 9.36122 18.355 9.24101 18.251H12.7625ZM8.575 15.9512H13.4256C13.558 15.9512 13.616 16.044 13.616 16.1055C13.616 16.1704 13.5543 16.2636 13.4256 16.2637H8.56133C8.5386 16.2643 8.51516 16.2601 8.49394 16.252C8.47303 16.2438 8.45359 16.2322 8.4373 16.2168C8.42082 16.2011 8.40746 16.1819 8.39824 16.1611C8.38977 16.142 8.38571 16.1214 8.38457 16.1006C8.38766 16.04 8.44696 15.9512 8.575 15.9512ZM10.9998 0.5C14.7665 0.5 17.7731 3.39103 17.7732 6.90332C17.7732 9.21888 16.4706 11.2593 14.4978 12.3857L14.2977 12.5L14.2547 12.7266C14.1678 13.1805 13.9748 13.5991 13.699 13.9639H8.29961C8.03646 13.6187 7.88001 13.2564 7.79082 12.8037L7.77519 12.7236L7.73515 12.6533L7.68925 12.5732L7.62187 12.4541L7.50273 12.3857L7.14043 12.1641C5.3706 11.0035 4.22734 9.07449 4.22734 6.90332C4.22752 3.39111 7.23322 0.500136 10.9998 0.5Z" stroke="white"/>
</svg>
