<svg width="20" height="20" viewBox="0 0 20 20" fill="none" xmlns="http://www.w3.org/2000/svg">
<path d="M12.7617 18.251C12.2989 18.6479 11.6822 18.8945 10.999 18.8945H10.9941C10.5141 18.8998 10.0416 18.7737 9.62793 18.5303C9.48977 18.449 9.36045 18.355 9.24023 18.251H12.7617ZM8.57324 15.9512H13.4248C13.557 15.9513 13.6151 16.0441 13.6152 16.1055C13.6152 16.1704 13.5535 16.2636 13.4248 16.2637H8.56055C8.53782 16.2643 8.51439 16.2611 8.49316 16.2529C8.47209 16.2448 8.45292 16.2323 8.43652 16.2168C8.42004 16.2011 8.40668 16.1819 8.39746 16.1611C8.389 16.142 8.3849 16.1215 8.38379 16.1006C8.38662 16.0479 8.43129 15.9734 8.52734 15.9551L8.57324 15.9512Z" stroke="#8359E3"/>
<path d="M7.25384 12.82C5.13747 11.6127 3.72656 9.41455 3.72656 6.90364C3.72656 3.09091 6.98111 0 10.9993 0C15.0175 0 18.272 3.09091 18.272 6.90364C18.272 9.41455 16.8593 11.6127 14.7447 12.82C14.6266 13.4382 14.3429 13.9982 13.9375 14.4636H8.06111C7.65121 13.9967 7.41928 13.5096 7.29922 12.9L7.25384 12.82Z" fill="#8359E3"/>
<path d="M15.1959 7.55896C15.2036 6.17305 14.6608 4.84076 13.6868 3.85481C12.7128 2.86886 11.3872 2.30992 10.0013 2.30078C9.54132 2.30078 9.30859 2.52078 9.30859 2.95714C9.30859 3.06624 9.54132 3.28442 10.0013 3.28442C12.2195 3.28442 14.1577 5.12624 14.1577 7.55896C14.1577 7.66805 14.3904 7.88805 14.8486 7.88805C14.9631 7.88805 15.1959 7.66805 15.1959 7.56078V7.55896Z" fill="white"/>
</svg>
