<svg width="20" height="20" viewBox="0 0 20 20" fill="none" xmlns="http://www.w3.org/2000/svg">
<path d="M9.12008 0.734708C9.38761 0.580948 9.69108 0.5 10 0.5C10.3089 0.5 10.6124 0.580948 10.8799 0.734708L17.6201 4.60901C17.8876 4.76276 18.1098 4.98391 18.2642 5.25022C18.4187 5.51653 18.5 5.81863 18.5 6.12614V13.8739C18.5 14.1814 18.4187 14.4835 18.2642 14.7498C18.1098 15.0161 17.8876 15.2372 17.6201 15.391L10.8799 19.2653C10.6124 19.4191 10.3089 19.5 10 19.5C9.69108 19.5 9.38761 19.4191 9.12008 19.2653L2.37992 15.391C2.1124 15.2372 1.89024 15.0161 1.73578 14.7498C1.58133 14.4835 1.50001 14.1814 1.5 13.8739V6.12614C1.50001 5.81863 1.58133 5.51653 1.73578 5.25022C1.89024 4.98391 2.1124 4.76276 2.37992 4.60901L9.12008 0.734708ZM10 2.25184L3.25983 6.12614V13.8739L10 17.7482L16.7402 13.8739V6.12614L10 2.25184ZM10 6.49623C10.9335 6.49623 11.8287 6.86537 12.4888 7.52246C13.1488 8.17954 13.5197 9.07074 13.5197 10C13.5197 10.9293 13.1488 11.8205 12.4888 12.4775C11.8287 13.1346 10.9335 13.5038 10 13.5038C9.06653 13.5038 8.17128 13.1346 7.51122 12.4775C6.85115 11.8205 6.48033 10.9293 6.48033 10C6.48033 9.07074 6.85115 8.17954 7.51122 7.52246C8.17128 6.86537 9.06653 6.49623 10 6.49623ZM10 8.24811C9.7689 8.24811 9.54005 8.29343 9.32654 8.38147C9.11303 8.46951 8.91903 8.59855 8.75561 8.76123C8.59219 8.92391 8.46257 9.11703 8.37413 9.32958C8.28569 9.54213 8.24017 9.76994 8.24017 10C8.24017 10.2301 8.28569 10.4579 8.37413 10.6704C8.46257 10.883 8.59219 11.0761 8.75561 11.2388C8.91903 11.4015 9.11303 11.5305 9.32654 11.6185C9.54005 11.7066 9.7689 11.7519 10 11.7519C10.4667 11.7519 10.9144 11.5673 11.2444 11.2388C11.5744 10.9102 11.7598 10.4646 11.7598 10C11.7598 9.53537 11.5744 9.08977 11.2444 8.76123C10.9144 8.43269 10.4667 8.24811 10 8.24811Z" fill="white"/>
</svg>
