<svg width="20" height="20" viewBox="0 0 20 20" fill="none" xmlns="http://www.w3.org/2000/svg">
<path d="M9.12008 0.734708C9.38761 0.580948 9.69108 0.5 10 0.5C10.3089 0.5 10.6124 0.580948 10.8799 0.734708L17.6201 4.60901C17.8876 4.76276 18.1098 4.98391 18.2642 5.25022C18.4187 5.51653 18.5 5.81863 18.5 6.12614V13.8739C18.5 14.1814 18.4187 14.4835 18.2642 14.7498C18.1098 15.0161 17.8876 15.2372 17.6201 15.391L10.8799 19.2653C10.6124 19.4191 10.3089 19.5 10 19.5C9.69108 19.5 9.38761 19.4191 9.12008 19.2653L2.37992 15.391C2.1124 15.2372 1.89024 15.0161 1.73578 14.7498C1.58133 14.4835 1.50001 14.1814 1.5 13.8739V6.12614C1.50001 5.81863 1.58133 5.51653 1.73578 5.25022C1.89024 4.98391 2.1124 4.76276 2.37992 4.60901L9.12008 0.734708Z" fill="#8359E3"/>
<path d="M10.0001 6.49609C10.9336 6.49609 11.8289 6.86524 12.4889 7.52233C13.149 8.17941 13.5198 9.07061 13.5198 9.99987C13.5198 10.9291 13.149 11.8203 12.4889 12.4774C11.8289 13.1345 10.9336 13.5036 10.0001 13.5036C9.06666 13.5036 8.17142 13.1345 7.51136 12.4774C6.85129 11.8203 6.48047 10.9291 6.48047 9.99987C6.48047 9.07061 6.85129 8.17941 7.51136 7.52233C8.17142 6.86524 9.06666 6.49609 10.0001 6.49609ZM10.0001 8.24798C9.76903 8.24798 9.54019 8.29329 9.32668 8.38134C9.11317 8.46938 8.91916 8.59842 8.75575 8.7611C8.59233 8.92377 8.4627 9.1169 8.37426 9.32945C8.28582 9.542 8.2403 9.76981 8.2403 9.99987C8.2403 10.2299 8.28582 10.4577 8.37426 10.6703C8.4627 10.8828 8.59233 11.076 8.75575 11.2386C8.91916 11.4013 9.11317 11.5304 9.32668 11.6184C9.54019 11.7064 9.76903 11.7518 10.0001 11.7518C10.4669 11.7518 10.9145 11.5672 11.2445 11.2386C11.5746 10.9101 11.76 10.4645 11.76 9.99987C11.76 9.53524 11.5746 9.08964 11.2445 8.7611C10.9145 8.43255 10.4669 8.24798 10.0001 8.24798Z" fill="white"/>
</svg>
